<svg width="128.000000" height="62.000000" viewBox="0 0 128 62" fill="none" xmlns="http://www.w3.org/2000/svg" xmlns:xlink="http://www.w3.org/1999/xlink">
	<desc>
			Created with Pixso.
	</desc>
	<defs/>
	<path id="Vector" d="M11.36 61.85L11.36 57.18L10.34 57.18L10.34 56.43L11.36 56.43L11.36 55.75C11.36 55.11 11.53 54.62 11.86 54.29C12.18 53.95 12.64 53.78 13.22 53.78C13.57 53.78 13.87 53.82 14.13 53.9L14.13 54.67C13.98 54.63 13.84 54.6 13.71 54.58C13.59 54.57 13.46 54.56 13.34 54.56C12.6 54.56 12.23 54.94 12.23 55.69L12.23 56.44L14.09 56.44L14.09 57.18L12.23 57.18L12.23 61.85L11.36 61.85L11.36 61.85ZM15.43 61.85L15.43 56.43L16.29 56.43L16.29 57.38C16.47 57.03 16.69 56.77 16.95 56.59C17.22 56.41 17.53 56.31 17.88 56.31C18.05 56.31 18.21 56.33 18.36 56.36L18.36 57.22C18.28 57.21 18.19 57.2 18.09 57.19C17.99 57.19 17.9 57.18 17.81 57.18C17.41 57.18 17.09 57.3 16.84 57.54C16.59 57.79 16.41 58.11 16.29 58.51L16.29 61.85L15.43 61.85L15.43 61.85ZM22.23 61.97C21.69 61.97 21.22 61.85 20.82 61.6C20.42 61.36 20.11 61.03 19.89 60.6C19.68 60.18 19.57 59.69 19.57 59.15C19.57 58.6 19.68 58.11 19.89 57.68C20.11 57.26 20.42 56.93 20.82 56.68C21.22 56.44 21.69 56.32 22.23 56.32L22.34 56.32C22.89 56.32 23.36 56.44 23.76 56.68C24.16 56.93 24.46 57.26 24.68 57.68C24.9 58.11 25.01 58.6 25.01 59.15C25.01 59.69 24.9 60.18 24.68 60.6C24.46 61.03 24.16 61.36 23.76 61.6C23.36 61.85 22.89 61.97 22.34 61.97L22.23 61.97ZM22.24 61.17L22.34 61.17C22.88 61.17 23.31 60.99 23.63 60.62C23.95 60.25 24.11 59.76 24.11 59.14C24.11 58.53 23.95 58.03 23.63 57.67C23.31 57.3 22.88 57.11 22.34 57.11L22.24 57.11C21.69 57.11 21.26 57.3 20.94 57.67C20.63 58.03 20.47 58.53 20.47 59.14C20.47 59.76 20.63 60.25 20.94 60.62C21.26 60.99 21.69 61.17 22.24 61.17ZM26.78 61.85L26.78 56.43L27.64 56.43L27.64 57.44C27.84 57.09 28.09 56.82 28.4 56.62C28.71 56.42 29.07 56.31 29.47 56.31L29.58 56.31C30.49 56.31 31.07 56.75 31.33 57.61C31.54 57.21 31.81 56.89 32.14 56.66C32.48 56.43 32.86 56.31 33.3 56.31L33.41 56.31C34.03 56.31 34.5 56.52 34.82 56.93C35.15 57.34 35.31 57.92 35.31 58.68L35.31 61.85L34.44 61.85L34.44 58.8C34.44 57.68 34.02 57.12 33.2 57.12L33.1 57.12C32.71 57.12 32.37 57.24 32.09 57.5C31.81 57.76 31.6 58.08 31.48 58.48L31.48 61.85L30.61 61.85L30.61 58.8C30.61 57.68 30.2 57.12 29.37 57.12L29.26 57.12C28.87 57.12 28.54 57.24 28.26 57.5C27.98 57.76 27.77 58.08 27.65 58.48L27.65 61.85L26.78 61.85ZM48.32 54.04L48.32 55.08C48.32 55.15 48.27 55.2 48.21 55.2L43.7 55.2L43.7 57.32L47.42 57.32C47.49 57.32 47.53 57.37 47.53 57.43L47.53 58.48C47.53 58.54 47.49 58.59 47.42 58.59L43.7 58.59L43.7 61.73C43.7 61.8 43.66 61.85 43.59 61.85L42.46 61.85C42.39 61.85 42.35 61.8 42.35 61.73L42.35 54.04C42.35 53.97 42.39 53.93 42.46 53.93L48.21 53.93C48.28 53.93 48.32 53.98 48.32 54.04ZM57.51 61.85L56.27 61.85C56.2 61.85 56.15 61.81 56.14 61.75C55.97 61.1 55.77 60.41 55.54 59.72L51.73 59.72C51.5 60.41 51.3 61.1 51.14 61.75C51.12 61.81 51.08 61.85 51.01 61.85L49.81 61.85C49.73 61.85 49.69 61.8 49.71 61.72C50.43 59.2 51.52 56.42 52.63 54.08C52.68 53.97 52.74 53.93 52.85 53.93L54.47 53.93C54.58 53.93 54.64 53.97 54.7 54.08C55.81 56.41 56.89 59.2 57.62 61.72C57.64 61.8 57.59 61.85 57.51 61.85ZM55.12 58.5C54.71 57.36 54.24 56.21 53.77 55.17L53.5 55.17C53.03 56.21 52.56 57.36 52.14 58.5L55.12 58.5ZM59.55 57.96C59.55 55.5 61.18 53.78 63.51 53.78L63.68 53.78C65.14 53.78 66.27 54.52 66.87 55.58C66.91 55.65 66.9 55.7 66.83 55.74L65.82 56.23C65.75 56.26 65.67 56.26 65.62 56.18C65.2 55.46 64.57 55.07 63.63 55.07L63.46 55.07C62 55.07 60.99 56.22 60.99 57.9C60.99 59.58 61.98 60.71 63.46 60.71L63.63 60.71C64.59 60.71 65.15 60.38 65.58 59.89C65.64 59.83 65.7 59.82 65.77 59.85L66.8 60.35C66.84 60.37 66.86 60.4 66.86 60.43C66.86 60.46 66.84 60.48 66.82 60.51C66.19 61.43 65.05 62 63.66 62L63.49 62C61.12 62 59.55 60.38 59.55 57.96ZM75.95 60.69L75.95 61.73C75.95 61.8 75.9 61.85 75.84 61.85L69.85 61.85C69.78 61.85 69.74 61.8 69.74 61.73L69.74 54.04C69.74 53.98 69.78 53.93 69.85 53.93L75.74 53.93C75.8 53.93 75.85 53.98 75.85 54.04L75.85 55.08C75.85 55.15 75.8 55.2 75.74 55.2L71.09 55.2L71.09 57.26L74.87 57.26C74.94 57.26 74.98 57.3 74.98 57.37L74.98 58.4C74.98 58.47 74.94 58.51 74.87 58.51L71.09 58.51L71.09 60.58L75.84 60.58C75.9 60.58 75.95 60.63 75.95 60.69ZM86.26 59.68C86.26 61.06 85.19 61.85 83.29 61.85L79.37 61.85C79.3 61.85 79.26 61.8 79.26 61.73L79.26 54.04C79.26 53.98 79.3 53.93 79.37 53.93L82.95 53.93C84.79 53.93 85.79 54.66 85.79 55.98C85.79 56.85 85.35 57.42 84.44 57.69C85.71 57.95 86.26 58.7 86.26 59.68ZM82.92 55.16L80.61 55.16L80.61 57.29L82.92 57.29C83.95 57.29 84.42 56.96 84.42 56.23C84.42 55.5 83.95 55.16 82.92 55.16ZM84.87 59.56C84.87 58.82 84.38 58.49 83.3 58.49L80.61 58.49L80.61 60.62L83.3 60.62C84.39 60.62 84.87 60.3 84.87 59.56ZM88.65 57.89C88.65 55.5 90.24 53.78 92.75 53.78L92.92 53.78C95.43 53.78 97.03 55.5 97.03 57.89C97.03 60.28 95.43 62 92.92 62L92.75 62C90.24 62 88.65 60.28 88.65 57.89ZM92.92 60.71C94.56 60.71 95.59 59.59 95.59 57.89C95.59 56.19 94.56 55.07 92.92 55.07L92.75 55.07C91.12 55.07 90.08 56.18 90.08 57.89C90.08 59.59 91.12 60.71 92.75 60.71L92.92 60.71ZM99.34 57.89C99.34 55.5 100.94 53.78 103.45 53.78L103.62 53.78C106.13 53.78 107.72 55.5 107.72 57.89C107.72 60.28 106.13 62 103.62 62L103.45 62C100.94 62 99.34 60.28 99.34 57.89ZM103.62 60.71C105.26 60.71 106.29 59.59 106.29 57.89C106.29 56.19 105.26 55.07 103.62 55.07L103.45 55.07C101.81 55.07 100.78 56.18 100.78 57.89C100.78 59.59 101.81 60.71 103.45 60.71L103.62 60.71ZM117.56 61.85L116.09 61.85C115.99 61.85 115.95 61.83 115.89 61.75C114.86 60.54 113.64 59.35 112.6 58.46L111.94 58.46L111.94 61.73C111.94 61.8 111.89 61.85 111.82 61.85L110.7 61.85C110.63 61.85 110.58 61.8 110.58 61.73L110.58 54.04C110.58 53.97 110.63 53.93 110.7 53.93L111.82 53.93C111.89 53.93 111.94 53.98 111.94 54.04L111.94 57.16L112.61 57.16C113.72 56.17 114.75 55.09 115.59 54.01C115.64 53.94 115.69 53.93 115.76 53.93L117.15 53.93C117.22 53.93 117.25 53.96 117.25 54.01C117.25 54.03 117.24 54.06 117.21 54.09C115.98 55.59 114.77 56.82 113.65 57.77C115.06 58.96 116.4 60.28 117.62 61.71C117.68 61.78 117.65 61.85 117.56 61.85ZM128 0L121.2 0L121.2 36L128 36L128 0ZM96.21 22.52C96.21 18.05 99.05 14.63 103.61 14.63C107.97 14.63 111.06 18 111.06 22.52C111.06 27.1 108.12 30.46 103.61 30.46C99.2 30.46 96.21 27.1 96.21 22.52ZM111.17 36L117.66 36L117.66 9.1L111.06 9.1L111.06 11.51C109.7 10 106.81 8.64 103.21 8.64C94.94 8.64 89.42 14.58 89.42 22.52C89.42 30.87 94.99 36.45 103.21 36.45C107.57 36.45 110.15 34.64 111.16 33.33L111.16 36L111.17 36ZM83.59 4.57L76.8 4.57L76.8 9.1L74.16 9.1L74.16 15.08L76.8 15.08L76.8 28.51C76.8 33.83 79.63 36.25 85.06 36.25C86.88 36.25 88.25 36.05 88.5 36L88.5 30.06L87.03 30.06C84.45 30.06 83.59 29.06 83.59 26.44L83.59 15.08L88.35 15.08L88.35 9.1L83.59 9.1L83.59 4.57L83.59 4.57ZM72.38 9.05C72.23 8.99 71.98 8.94 71.47 8.94C68.63 8.94 67.57 10.65 67.11 11.31L67.11 9.1L60.77 9.1L60.77 36L67.57 36L67.57 19.86C67.57 17.14 68.63 15.53 72.38 15.28L72.38 9.05L72.38 9.05ZM36.85 22.57C36.85 18.05 39.74 14.73 44.2 14.73C48.56 14.73 51.6 18.1 51.6 22.57C51.6 27.05 48.71 30.37 44.25 30.37C39.89 30.36 36.85 27.1 36.85 22.57ZM30.06 22.62C30.06 30.56 35.73 36.45 44.2 36.45C52.56 36.45 58.39 30.41 58.39 22.52C58.39 14.58 52.77 8.64 44.2 8.64C36.04 8.64 30.06 14.63 30.06 22.62ZM6.59 22.57C6.59 18 9.43 14.63 14.04 14.63C18.55 14.63 21.54 18 21.54 22.57C21.54 27.15 18.7 30.47 14.09 30.47C9.58 30.46 6.59 27.15 6.59 22.57ZM6.79 33.88C8.06 34.99 10.69 36.45 14.44 36.45C23.06 36.45 28.34 30.26 28.34 22.47C28.34 14.37 22.96 8.64 14.75 8.64C9.83 8.64 7.5 10.7 6.59 11.71L6.59 9.1L0 9.1L0 44.04L6.79 44.04L6.79 33.88Z" fill="#FFFFFF" fill-opacity="1.000000" fill-rule="nonzero"/>
</svg>
